<svg id="child" enable-background="new 0 0 300 300" height="512" viewBox="0 0 300 300" width="512" xmlns="http://www.w3.org/2000/svg"><circle cx="162" cy="153.15" fill="#efefd2" r="86"/><path d="" style="fill:none;stroke:#4c241d;stroke-width:8;stroke-linecap:round;stroke-linejoin:round;stroke-miterlimit:10"/><path d="m124.636 207.05c4.49-.132 12.325 4.064 18.027 7.55 5.339 3.264 10.98 5.746 16.802 7.48l17.024 5.07 15.511-8.769-37.107-35.52c-10.453-10.006-23.965-14.292-37.211-11.803l-7.69 1.445c-5.396 1.014-10.416 3.659-14.62 7.593l22.865 23.921c1.776 1.858 4.036 3.102 6.399 3.033z" fill="#fc8c29"/><path d="m176.489 231.15c-.383 0-.768-.055-1.142-.166l-17.024-5.069c-6.242-1.859-12.213-4.519-17.747-7.901-10.759-6.577-14.825-7.009-15.824-6.966-3.337.078-6.684-1.418-9.408-4.268l-22.864-23.921c-.738-.772-1.137-1.808-1.107-2.875.03-1.068.485-2.079 1.266-2.81 4.795-4.487 10.541-7.462 16.615-8.604l7.689-1.445c14.5-2.72 29.341 1.958 40.716 12.846l37.107 35.52c.914.875 1.36 2.131 1.203 3.387-.157 1.255-.899 2.362-2 2.985l-15.511 8.77c-.606.342-1.285.517-1.969.517zm-51.464-28.108c2.059 0 7.285.541 19.725 8.146 4.944 3.023 10.279 5.398 15.857 7.06l15.394 4.584 9.345-5.283-33.219-31.797c-9.487-9.081-21.772-13.006-33.707-10.762l-7.689 1.445c-3.33.625-6.548 2-9.473 4.03l19.87 20.788c1.122 1.174 2.346 1.8 3.391 1.799.142-.006.31-.01.506-.01zm-.389 4.007h.01z" fill="#4c241d"/><path d="m132.832 206.639h-.32c-4.458 0-8.764-1.622-12.114-4.564l-25.026-21.98c-3.309 2.599-6.195 5.761-8.506 9.387l-1.253 1.966c-4.909 6.17-5.484 14.736-1.444 21.508 4.969 8.328 13.952 13.428 23.649 13.428h23.636l-79.454 12.766-16 12 97.787-.085c12.988 0 23.372-11.147 22.108-24.395-1.101-11.549-11.461-20.031-23.063-20.031z" fill="#bd53b5"/><g fill="#4c241d"><path d="m36 255.15c-1.721 0-3.249-1.101-3.794-2.733-.545-1.634.016-3.434 1.394-4.467l16-12c.519-.389 1.125-.646 1.765-.749l44.571-7.161c-6.255-2.557-11.654-7.089-15.202-13.033-4.827-8.089-4.172-18.458 1.613-25.875l1.146-1.799c2.536-3.979 5.702-7.471 9.409-10.383 1.514-1.191 3.663-1.132 5.11.14l25.026 21.979c2.621 2.303 5.985 3.57 9.474 3.57h.32c13.901 0 25.78 10.389 27.045 23.65.704 7.381-1.735 14.74-6.691 20.191-4.959 5.455-12.031 8.584-19.399 8.584l-97.784.085c-.001.001-.002.001-.003.001zm17.61-12.207-5.596 4.196 85.771-.074c5.124 0 10.037-2.175 13.484-5.966 3.494-3.843 5.144-8.833 4.646-14.05-.878-9.202-9.259-16.41-19.082-16.41h-.32c-5.433 0-10.672-1.975-14.753-5.56l-22.407-19.678c-1.944 1.86-3.657 3.946-5.113 6.23l-1.252 1.966c-.075.118-.156.231-.244.341-3.85 4.839-4.308 11.657-1.139 16.968 4.225 7.08 11.97 11.478 20.214 11.478h23.636c2.086 0 3.821 1.603 3.987 3.682s-1.293 3.937-3.353 4.268z"/><path d="m72 63.15c-2.209 0-4-1.791-4-4v-12c0-2.209 1.791-4 4-4s4 1.791 4 4v12c0 2.209-1.791 4-4 4z"/><path d="m72 91.15c-2.209 0-4-1.791-4-4v-12c0-2.209 1.791-4 4-4s4 1.791 4 4v12c0 2.209-1.791 4-4 4z"/><path d="m64 71.15h-12c-2.209 0-4-1.791-4-4s1.791-4 4-4h12c2.209 0 4 1.791 4 4s-1.791 4-4 4z"/><path d="m92 71.15h-12c-2.209 0-4-1.791-4-4s1.791-4 4-4h12c2.209 0 4 1.791 4 4s-1.791 4-4 4z"/><path d="m244 183.15c-2.209 0-4-1.791-4-4v-12c0-2.209 1.791-4 4-4s4 1.791 4 4v12c0 2.209-1.791 4-4 4z"/><path d="m244 211.15c-2.209 0-4-1.791-4-4v-12c0-2.209 1.791-4 4-4s4 1.791 4 4v12c0 2.209-1.791 4-4 4z"/><path d="m236 191.15h-12c-2.209 0-4-1.791-4-4s1.791-4 4-4h12c2.209 0 4 1.791 4 4s-1.791 4-4 4z"/><path d="m264 191.15h-12c-2.209 0-4-1.791-4-4s1.791-4 4-4h12c2.209 0 4 1.791 4 4s-1.791 4-4 4z"/><path d="m242 87.15c-7.72 0-14-6.28-14-14s6.28-14 14-14 14 6.28 14 14-6.28 14-14 14zm0-20c-3.309 0-6 2.691-6 6s2.691 6 6 6 6-2.691 6-6-2.691-6-6-6z"/><path d="m58 167.15c-7.72 0-14-6.28-14-14s6.28-14 14-14 14 6.28 14 14-6.28 14-14 14zm0-20c-3.309 0-6 2.691-6 6s2.691 6 6 6 6-2.691 6-6-2.691-6-6-6z"/><path d="m192.595 181.658c-.291 0-.584-.031-.874-.097l-17.472-3.913c-2.156-.482-3.512-2.622-3.029-4.777.483-2.156 2.625-3.513 4.777-3.029l11.425 2.559-2.375-11.477c-.448-2.163.943-4.279 3.106-4.728 2.162-.452 4.28.943 4.728 3.106l3.632 17.545c.275 1.33-.143 2.709-1.112 3.662-.756.744-1.768 1.149-2.806 1.149z"/></g><path d="m160 247.15h30c7.732 0 14-6.268 14-14 0-7.732-6.268-14-14-14h-16.67c-7.362 0-13.329 5.968-13.329 13.329v14.671z" fill="#ffe8dc"/><path d="m190 251.15h-30c-2.209 0-4-1.791-4-4v-14.671c0-9.556 7.774-17.329 17.33-17.329h16.67c9.925 0 18 8.075 18 18s-8.075 18-18 18zm-26-8h26c5.514 0 10-4.486 10-10s-4.486-10-10-10h-16.67c-5.145 0-9.33 4.185-9.33 9.329z" fill="#4c241d"/><path d="m222.523 252.85-59.74-41.474c-3.899-2.707-4.557-8.213-1.404-11.762 2.904-3.269 7.909-3.566 11.178-.662l54.373 48.297 21.07 3.901z" fill="#ffe8dc"/><path d="m222.522 256.85c-.813 0-1.609-.248-2.281-.714l-59.74-41.474c-2.798-1.943-4.634-4.997-5.037-8.379-.403-3.381.662-6.78 2.923-9.326 4.363-4.914 11.911-5.359 16.825-.997l53.541 47.558 19.975 3.698c1.983.367 3.382 2.153 3.265 4.166-.117 2.014-1.715 3.624-3.727 3.759l-25.478 1.7c-.088.006-.177.009-.266.009zm-55.222-55.894c-1.082 0-2.159.444-2.932 1.314-.754.85-1.096 1.938-.961 3.066s.723 2.106 1.657 2.755l53.831 37.371-48.996-43.521c-.744-.66-1.673-.985-2.599-.985z" fill="#4c241d"/><circle cx="132" cy="71.15" fill="#4c241d" r="4"/><circle cx="208" cy="119.15" fill="#4c241d" r="4"/><path d="m187.998 175.15c-.921 0-1.847-.316-2.602-.963l-6.741-5.778c-12.985-11.13-29.554-17.259-46.656-17.259-2.209 0-4-1.791-4-4s1.791-4 4-4c19.01 0 37.428 6.813 51.862 19.185l6.741 5.778c1.677 1.438 1.871 3.963.434 5.641-.79.922-1.91 1.396-3.038 1.396z" fill="#4c241d"/></svg>